<?xml version="1.0" standalone="no"?>
<!DOCTYPE svg PUBLIC "-//W3C//DTD SVG 20010904//EN"
 "http://www.w3.org/TR/2001/REC-SVG-20010904/DTD/svg10.dtd">
<svg version="1.0" xmlns="http://www.w3.org/2000/svg"
 width="2853.000000pt" height="2853.000000pt" viewBox="0 0 2853.000000 2853.000000"
 preserveAspectRatio="xMidYMid meet">
<metadata>
Created by potrace 1.11, written by Peter Selinger 2001-2013
</metadata>
<g transform="translate(0.000000,2853.000000) scale(0.100000,-0.100000)"
fill="#000000" stroke="none">
<path d="M16849 28526 c-2 -2 -42 -6 -89 -10 -92 -7 -152 -13 -215 -21 -22 -3
-65 -7 -95 -11 -30 -3 -98 -12 -150 -20 -52 -9 -111 -17 -130 -20 -19 -2 -71
-11 -115 -19 -44 -8 -91 -16 -105 -19 -14 -2 -65 -12 -115 -21 -49 -10 -101
-19 -115 -21 -14 -3 -47 -9 -75 -14 -27 -6 -61 -12 -75 -15 -14 -3 -50 -10
-80 -16 -30 -6 -68 -13 -85 -16 -16 -3 -37 -9 -46 -14 -9 -4 -19 -6 -21 -3 -3
2 -25 0 -49 -5 -24 -5 -60 -12 -79 -16 -19 -3 -69 -12 -110 -20 -41 -8 -91
-17 -110 -20 -19 -3 -42 -8 -50 -10 -8 -2 -35 -7 -60 -10 -25 -3 -85 -13 -135
-21 -49 -8 -108 -17 -130 -19 -22 -3 -74 -9 -115 -14 -162 -21 -209 -25 -436
-36 -137 -6 -165 -5 -191 8 -17 9 -33 13 -37 10 -3 -4 -6 -1 -6 5 0 6 -26 24
-57 40 -32 16 -92 47 -133 69 -41 22 -78 40 -82 42 -4 1 -22 8 -40 15 -104 44
-214 60 -304 46 -27 -5 -74 -11 -104 -15 -30 -4 -58 -9 -61 -11 -4 -2 -24 -6
-45 -10 -139 -21 -325 -89 -417 -153 -170 -118 -259 -298 -261 -526 -1 -102
24 -215 47 -215 6 0 7 -3 4 -7 -17 -16 199 -344 294 -447 20 -21 18 -26 -46
-112 -119 -163 -322 -504 -308 -518 3 -3 2 -6 -4 -6 -12 0 -98 -170 -170 -340
-8 -19 -19 -44 -24 -55 -66 -156 -140 -377 -184 -550 -66 -264 -69 -365 -13
-486 20 -42 30 -76 24 -75 -21 2 -216 -37 -216 -43 0 -3 -12 -7 -27 -7 -35 -2
-63 -8 -245 -50 -402 -92 -847 -217 -1143 -321 -55 -19 -107 -36 -115 -38 -8
-2 -46 -15 -85 -29 -206 -73 -270 -98 -273 -107 -2 -5 -8 -7 -12 -4 -5 3 -25
-1 -44 -9 l-35 -15 29 80 c16 43 26 79 23 79 -3 0 -1 6 4 13 5 6 36 89 67 182
32 94 61 179 66 190 5 11 20 54 34 95 14 41 53 154 86 250 34 96 70 200 80
230 10 30 43 125 73 210 30 85 55 157 55 160 0 3 5 16 10 30 5 14 19 51 31 83
12 32 19 62 16 67 -3 5 -2 10 3 12 9 3 104 271 106 297 0 9 4 18 7 21 11 9 79
212 74 220 -3 5 -2 10 3 12 4 1 25 53 46 113 21 61 56 159 77 219 21 60 36
113 33 117 -3 5 -1 9 4 9 7 0 18 25 37 90 1 3 5 12 8 20 7 18 88 250 91 265 2
6 6 17 9 25 4 8 16 42 27 74 20 58 18 92 -7 156 -3 8 -7 24 -8 36 -2 11 -9 40
-15 65 -7 24 -14 51 -15 59 -7 31 -95 397 -104 430 -6 19 -22 87 -37 150 -15
63 -30 120 -33 127 -4 8 -15 5 -36 -12 -29 -23 -105 -80 -375 -279 -66 -48
-120 -92 -120 -97 0 -5 -3 -8 -7 -7 -11 3 -183 -124 -183 -134 0 -5 -4 -7 -9
-4 -24 15 -35 -11 -196 -489 -24 -71 -89 -263 -145 -425 -55 -162 -103 -302
-105 -310 -2 -8 -28 -86 -59 -172 -30 -87 -52 -158 -49 -158 3 0 1 -6 -4 -12
-8 -10 -99 -270 -120 -343 -1 -5 -18 -55 -38 -110 -135 -389 -283 -835 -277
-835 4 0 2 -4 -3 -8 -8 -5 -122 -324 -141 -392 -12 -46 -66 -196 -72 -201 -4
-4 -43 -10 -88 -13 -106 -9 -292 -42 -308 -55 -7 -6 -16 -8 -19 -5 -6 6 -109
-25 -174 -53 -18 -7 -35 -13 -38 -13 -3 0 -37 -17 -77 -36 -159 -79 -355 -228
-488 -370 -87 -94 -150 -170 -150 -183 0 -6 -4 -11 -9 -11 -9 0 -141 -182
-141 -195 0 -4 -7 -13 -15 -22 -8 -8 -12 -20 -8 -26 3 -7 2 -9 -2 -5 -5 5 -22
-16 -38 -45 -17 -28 -43 -74 -59 -102 -26 -45 -177 -351 -198 -400 -5 -11 -24
-54 -43 -96 -19 -42 -52 -116 -73 -164 -27 -62 -48 -95 -72 -114 -256 -197
-585 -468 -743 -613 -21 -18 -72 -64 -115 -103 -241 -217 -696 -673 -687 -688
3 -6 1 -7 -5 -3 -6 3 -20 -6 -32 -21 -11 -15 -62 -71 -113 -126 -50 -54 -97
-107 -104 -117 -7 -9 -27 -32 -45 -51 -39 -41 -56 -60 -199 -232 -124 -149
-122 -146 -169 -207 -19 -25 -38 -47 -41 -50 -45 -40 -619 -834 -619 -856 0
-3 -5 -10 -11 -17 -25 -29 -248 -382 -251 -399 -2 -7 -8 -17 -14 -23 -7 -5
-23 -31 -37 -57 -14 -26 -37 -64 -51 -85 -14 -21 -26 -45 -28 -53 -2 -8 -10
-22 -19 -32 -9 -10 -29 -43 -45 -74 -16 -30 -33 -62 -39 -72 -125 -215 -329
-621 -475 -942 -81 -179 -88 -195 -125 -285 -20 -49 -42 -103 -50 -120 -18
-39 -77 -186 -80 -200 -1 -5 -7 -21 -12 -35 -39 -93 -141 -371 -145 -395 -1
-11 -5 -22 -8 -25 -19 -18 -248 -773 -285 -935 -2 -11 -15 -65 -29 -120 -28
-110 -81 -333 -90 -380 -4 -16 -9 -41 -12 -55 -3 -14 -7 -36 -10 -50 -4 -22
-23 -117 -39 -200 -3 -14 -7 -36 -10 -50 -3 -14 -7 -34 -9 -45 -2 -11 -7 -40
-11 -65 -4 -25 -9 -52 -10 -60 -1 -8 -6 -35 -10 -60 -4 -25 -9 -54 -11 -65 -6
-32 -53 -355 -58 -405 -10 -84 -18 -145 -21 -170 -2 -14 -6 -54 -10 -90 -10
-105 -15 -162 -20 -205 -9 -81 -14 -152 -21 -255 -3 -58 -7 -130 -9 -160 -27
-404 -27 -980 0 -1445 9 -152 22 -323 30 -400 2 -22 7 -74 10 -115 4 -41 8
-82 11 -90 2 -8 6 -46 9 -83 3 -37 7 -80 9 -95 3 -15 7 -49 10 -77 9 -72 46
-336 52 -365 3 -14 7 -43 10 -65 2 -22 9 -60 14 -85 5 -25 12 -61 15 -80 7
-50 12 -79 41 -225 15 -71 28 -139 30 -150 2 -11 15 -69 29 -130 14 -60 27
-121 29 -135 3 -14 12 -54 21 -90 9 -36 21 -83 26 -105 5 -22 13 -58 19 -80 6
-22 12 -47 14 -55 34 -135 111 -406 147 -520 83 -263 142 -435 150 -438 5 -2
7 -8 4 -12 -3 -5 17 -69 45 -143 27 -75 50 -138 50 -142 0 -3 8 -25 19 -48 10
-23 33 -80 51 -127 39 -103 138 -342 176 -425 15 -33 28 -62 29 -65 1 -5 15
-36 81 -180 96 -210 295 -600 305 -600 7 0 9 -3 6 -6 -8 -8 120 -250 203 -384
5 -8 20 -36 34 -62 14 -25 42 -73 63 -106 21 -33 76 -123 123 -199 46 -76 88
-139 92 -141 4 -2 8 -8 8 -13 0 -16 260 -399 271 -399 5 0 8 -3 7 -7 -4 -11
157 -238 262 -373 11 -14 43 -56 72 -95 29 -38 56 -72 59 -75 3 -3 29 -36 59
-74 53 -69 76 -98 95 -120 6 -6 52 -62 103 -123 52 -62 98 -113 103 -113 5 0
8 -3 7 -7 -2 -5 9 -21 24 -38 15 -16 35 -39 45 -51 31 -36 137 -156 161 -183
231 -257 789 -809 813 -803 6 1 8 -1 5 -6 -6 -10 93 -98 106 -95 4 2 8 -4 8
-12 0 -8 10 -21 23 -29 12 -9 44 -36 71 -60 27 -25 52 -43 57 -40 5 3 8 2 7
-3 -6 -18 389 -346 405 -336 6 3 7 1 3 -5 -4 -7 -4 -12 1 -12 4 0 28 -18 53
-40 25 -22 51 -40 58 -40 6 0 12 -4 12 -8 0 -8 196 -159 321 -247 147 -104
286 -201 300 -210 9 -5 63 -41 120 -80 57 -38 108 -72 114 -74 5 -2 42 -26 81
-53 40 -26 77 -48 82 -48 6 0 12 -4 14 -8 2 -4 25 -21 52 -37 28 -17 66 -40
85 -52 52 -33 108 -62 112 -60 2 1 3 0 1 -2 -2 -4 163 -104 203 -122 11 -5 52
-28 90 -50 39 -22 86 -47 105 -57 19 -9 37 -20 40 -23 3 -3 37 -21 75 -41 39
-19 87 -45 108 -56 20 -12 37 -18 37 -14 0 4 4 2 8 -4 6 -9 414 -214 427 -214
2 0 33 -13 67 -30 34 -16 64 -28 66 -25 3 3 10 -2 17 -11 6 -9 23 -17 37 -17
14 -1 25 -4 23 -7 -2 -3 87 -43 198 -89 111 -46 216 -90 233 -97 32 -14 261
-103 279 -108 6 -2 17 -6 25 -9 153 -61 665 -227 885 -287 44 -12 91 -26 105
-31 24 -8 316 -84 362 -93 13 -3 81 -19 151 -36 71 -16 132 -28 137 -25 5 3
10 1 12 -4 1 -5 21 -12 43 -15 22 -3 103 -19 180 -34 77 -16 147 -30 155 -30
8 -1 47 -8 85 -16 39 -8 160 -28 270 -45 192 -30 224 -34 325 -47 25 -3 56 -7
70 -9 62 -9 109 -15 165 -20 33 -3 78 -8 100 -10 122 -13 249 -23 355 -30 47
-3 103 -7 126 -9 256 -28 1257 -29 1584 -1 30 2 100 7 155 10 55 3 111 8 125
10 14 2 59 6 100 10 212 17 575 62 805 100 50 8 110 18 135 21 25 3 52 8 60
11 8 2 33 7 55 10 22 2 45 9 51 14 6 5 13 6 16 3 8 -8 332 57 336 67 2 5 8 7
13 4 16 -10 461 97 794 192 182 51 236 67 424 129 74 24 141 44 148 44 7 0 13
5 13 10 0 6 3 9 8 8 16 -4 72 14 72 23 0 6 4 8 9 4 8 -5 88 20 146 45 11 5 52
20 90 33 39 14 81 30 95 36 14 6 88 35 165 65 185 72 366 148 555 234 45 20
232 108 335 157 44 22 83 44 87 49 4 6 8 8 8 4 0 -4 66 27 148 69 126 65 236
125 527 288 28 15 91 53 140 83 50 30 99 60 110 66 11 6 31 19 45 27 14 9 102
65 195 124 94 59 172 111 173 116 2 5 8 9 14 9 9 0 96 56 108 69 3 3 39 28 80
56 41 27 77 52 80 55 3 3 28 20 55 39 57 40 437 322 445 331 3 3 50 42 105 85
55 44 109 87 120 97 11 9 49 41 85 70 36 29 73 60 82 68 9 8 80 69 157 135 77
66 140 126 140 134 1 8 4 12 7 8 4 -3 12 -1 19 6 7 7 70 66 140 132 224 210
315 302 307 309 -4 4 -2 6 4 4 6 -2 44 31 84 72 128 132 304 320 325 347 11
14 36 42 55 62 20 20 65 70 100 111 36 41 70 80 75 86 6 6 26 30 45 54 19 23
45 54 58 69 13 14 35 42 50 61 15 19 39 48 53 65 32 35 215 268 244 310 11 15
32 42 46 59 59 70 287 394 282 400 -4 3 -2 6 4 6 6 0 22 18 37 40 14 22 23 40
19 40 -4 0 0 6 8 13 15 12 109 144 109 152 0 3 16 27 35 54 19 26 35 52 35 55
0 4 7 14 15 23 8 8 12 19 9 25 -4 7 -2 8 4 4 7 -4 12 -4 12 1 0 4 20 39 45 77
24 38 42 73 39 78 -3 4 -1 8 5 8 12 0 84 117 84 137 0 7 3 11 5 8 6 -6 122
189 122 205 0 5 4 10 9 10 5 0 11 8 14 17 4 10 17 36 29 58 13 22 45 81 72
130 27 50 61 113 76 140 59 106 253 501 253 513 0 6 4 12 9 12 4 0 8 4 8 9 0
5 18 49 41 98 22 48 49 106 58 128 10 22 27 60 39 85 11 25 32 74 46 110 15
36 33 79 40 95 8 17 35 84 61 150 26 66 51 129 56 140 4 11 21 56 37 100 17
44 33 89 38 100 4 11 8 22 9 25 1 3 4 12 8 20 6 15 66 189 112 325 48 143 115
361 117 385 2 14 6 27 9 30 6 5 99 334 113 400 3 14 24 98 46 187 22 90 39
166 38 170 0 5 1 15 5 23 11 31 97 448 110 540 3 19 17 103 31 185 36 212 58
376 52 382 -3 3 -1 13 3 22 5 9 12 48 16 86 3 39 8 79 10 90 3 11 7 49 10 85
3 36 8 81 10 100 2 19 6 70 10 112 3 42 8 92 10 110 2 18 7 85 11 148 4 63 8
133 9 155 27 414 27 1115 0 1467 -2 24 -6 89 -10 144 -3 54 -8 119 -11 144 -3
25 -7 74 -9 110 -3 36 -7 83 -9 105 -3 22 -8 65 -11 95 -12 122 -30 267 -35
280 -2 3 -2 9 -1 14 1 5 -5 56 -14 115 -9 58 -18 120 -20 136 -5 47 -33 211
-59 360 -46 253 -99 499 -108 503 -5 2 -6 8 -2 13 15 25 -193 789 -315 1154
-128 385 -264 747 -282 753 -5 2 -7 8 -4 12 6 9 -29 95 -147 365 -132 301
-321 683 -468 950 -46 83 -97 175 -113 205 -117 211 -443 727 -602 950 -11 16
-40 57 -64 92 -66 94 -78 108 -86 100 -5 -4 -5 -2 -2 4 5 8 -140 215 -211 299
-9 11 -36 46 -60 78 -23 31 -48 57 -54 57 -6 0 -9 3 -5 6 6 6 -60 90 -178 229
-254 299 -325 378 -497 560 -36 38 -83 88 -103 110 -20 22 -42 38 -48 37 -7
-2 -9 0 -5 4 9 8 -101 120 -114 116 -5 -1 -7 2 -4 7 8 12 -18 33 -29 23 -5 -4
-5 -2 -2 4 5 9 -147 162 -294 296 -263 240 -272 248 -282 241 -6 -3 -7 -2 -4
4 3 5 -11 23 -31 40 -20 17 -48 41 -62 53 -55 48 -122 103 -265 220 -183 148
-172 140 -215 170 -19 13 -44 32 -54 42 -30 28 -220 169 -228 169 -4 0 -23 15
-43 33 l-36 33 30 64 c63 137 81 181 75 190 -3 5 -1 9 4 9 8 0 21 29 26 60 1
3 7 19 13 35 16 40 50 178 58 235 3 25 8 52 10 60 2 8 7 62 10 120 3 58 12
139 20 180 8 41 17 87 19 102 3 15 7 32 11 38 3 5 8 22 10 37 2 16 8 50 13 77
12 61 7 254 -8 321 -7 28 -14 63 -17 79 -9 56 -65 232 -110 346 -57 146 -203
450 -216 450 -6 0 -8 3 -4 6 7 7 -5 29 -134 247 -52 87 -98 166 -104 177 -5
11 -13 20 -17 20 -5 0 -8 5 -8 10 0 6 -30 57 -67 113 -37 56 -70 107 -73 112
-4 9 -35 55 -80 119 -109 158 -153 216 -161 216 -6 0 -8 4 -5 8 3 5 -2 18 -12
28 -9 11 -37 46 -62 79 -25 33 -49 65 -55 71 -5 6 -21 26 -35 44 -23 31 -121
151 -145 176 -5 6 -35 40 -65 75 -175 201 -432 453 -610 599 -30 25 -60 49
-66 55 -112 98 -490 358 -507 349 -7 -4 -9 -3 -4 1 14 16 -395 241 -415 229
-6 -4 -8 -3 -5 2 3 6 -9 16 -26 24 -18 7 -61 27 -97 43 -170 76 -496 192 -620
222 -3 0 -14 4 -25 8 -11 3 -31 8 -45 11 -14 3 -43 10 -65 16 -22 6 -56 15
-77 19 -20 4 -82 36 -138 69 -56 34 -104 62 -108 62 -3 0 -13 7 -22 15 -24 22
-237 129 -305 153 -123 44 -177 52 -342 52 -88 0 -162 -2 -164 -4z"/>
</g>
</svg>
